<svg width="187" height="60" viewBox="0 0 187 60" fill="none" xmlns="http://www.w3.org/2000/svg">
<g filter="url(#filter0_bdi_700_16776)">
<rect x="2" y="2" width="56" height="56" rx="28" fill="#F8F8F8" fill-opacity="0.03" shape-rendering="crispEdges"/>
<rect x="2.75" y="2.75" width="54.5" height="54.5" rx="27.25" stroke="url(#paint0_linear_700_16776)" stroke-opacity="0.15" stroke-width="1.5" shape-rendering="crispEdges"/>
<g filter="url(#filter1_dd_700_16776)">
<path fill-rule="evenodd" clip-rule="evenodd" d="M41.173 21.1506C42.2757 22.2533 42.2757 24.041 41.173 25.1437L28.4671 37.8496C27.3645 38.9522 25.5767 38.9522 24.4741 37.8496L18.827 32.2025C17.7243 31.0998 17.7243 29.3121 18.827 28.2094C19.9296 27.1068 21.7174 27.1068 22.8201 28.2094L26.4706 31.8599L37.1799 21.1506C38.2826 20.0479 40.0704 20.0479 41.173 21.1506Z" fill="url(#paint1_linear_700_16776)" shape-rendering="crispEdges"/>
</g>
</g>
<g opacity="0.8">
<path d="M80.552 40.308C77.416 40.308 75.232 38.516 75.008 36.08H78.648C78.844 36.976 79.656 37.34 80.552 37.34C81.392 37.34 81.98 36.976 81.98 36.36C81.98 34.456 75.344 35.716 75.344 30.536C75.344 28.24 77.276 26.56 80.216 26.532C83.184 26.504 85.172 28.072 85.368 30.62H81.784C81.644 29.976 81.084 29.5 80.216 29.5C79.376 29.5 78.872 29.976 78.872 30.536C78.872 32.328 85.62 31.32 85.62 36.36C85.62 38.796 83.212 40.308 80.552 40.308ZM87.1114 40V26.84H90.9754V40H87.1114ZM89.0434 24.852C87.7274 24.852 86.6354 23.844 86.6354 22.556C86.6354 21.24 87.7274 20.204 89.0434 20.204C90.3594 20.204 91.4514 21.24 91.4514 22.556C91.4514 23.844 90.3594 24.852 89.0434 24.852ZM93.026 32.636C93.026 28.856 95.014 26.532 98.906 26.532C101.51 26.532 102.854 28.044 103.386 28.94H103.442C103.974 28.044 105.318 26.532 107.922 26.532C111.814 26.532 113.802 28.856 113.802 32.636V40H109.938V32.916C109.938 31.068 109.21 29.892 107.642 29.892C106.074 29.892 105.346 31.068 105.346 32.916V40H101.482V32.916C101.482 31.068 100.754 29.892 99.186 29.892C97.618 29.892 96.89 31.068 96.89 32.916V40H93.026V32.636ZM124.294 40.308C122.362 40.308 120.962 39.44 120.178 37.984V45.544H116.314V26.84H119.73L120.094 29.024C120.878 27.484 122.306 26.532 124.294 26.532C127.234 26.532 130.258 28.828 130.258 33.42C130.258 38.012 127.234 40.308 124.294 40.308ZM123.202 36.948C125.078 36.948 126.45 35.604 126.45 33.42C126.45 31.32 125.106 29.892 123.202 29.892C121.802 29.892 120.15 31.04 120.15 33.42C120.15 35.968 121.746 36.948 123.202 36.948ZM132.156 40V20.904H136.02V40H132.156ZM144.818 40.308C140.646 40.308 137.93 37.368 137.93 33.42C137.93 29.5 140.73 26.532 144.706 26.532C148.682 26.532 151.426 29.5 151.426 33.42L151.398 34.68H141.514C141.934 36.36 143.11 37.2 144.734 37.2C146.218 37.2 147.002 36.836 147.534 36.024H151.034C150.194 39.076 147.422 40.308 144.818 40.308ZM141.486 32.104H147.898C147.646 30.676 146.302 29.668 144.706 29.668C143.026 29.668 141.85 30.648 141.486 32.104Z" fill="#F8F8F8" fill-opacity="0.7"/>
<path d="M153.335 40V20.904H157.199V40H153.335ZM159.81 40V26.84H163.674V40H159.81ZM161.742 24.852C160.426 24.852 159.334 23.844 159.334 22.556C159.334 21.24 160.426 20.204 161.742 20.204C163.058 20.204 164.15 21.24 164.15 22.556C164.15 23.844 163.058 24.852 161.742 24.852ZM170.82 40.308C167.684 40.308 165.5 38.516 165.276 36.08H168.916C169.112 36.976 169.924 37.34 170.82 37.34C171.66 37.34 172.248 36.976 172.248 36.36C172.248 34.456 165.612 35.716 165.612 30.536C165.612 28.24 167.544 26.56 170.484 26.532C173.452 26.504 175.44 28.072 175.636 30.62H172.052C171.912 29.976 171.352 29.5 170.484 29.5C169.644 29.5 169.14 29.976 169.14 30.536C169.14 32.328 175.888 31.32 175.888 36.36C175.888 38.796 173.48 40.308 170.82 40.308ZM183.652 40.224C180.572 40.224 178.528 38.376 178.528 34.82V29.864H176.12V26.84H178.528V22.36H182.392V26.84H186.256V29.864H182.392V34.288C182.392 35.94 182.952 36.808 184.716 36.808L185.864 36.78V39.888C185.08 40.112 184.436 40.224 183.652 40.224Z" fill="#F8F8F8" fill-opacity="0.95"/>
</g>
<defs>
<filter id="filter0_bdi_700_16776" x="-98" y="-98" width="256" height="256" filterUnits="userSpaceOnUse" color-interpolation-filters="sRGB">
<feFlood flood-opacity="0" result="BackgroundImageFix"/>
<feGaussianBlur in="BackgroundImageFix" stdDeviation="50"/>
<feComposite in2="SourceAlpha" operator="in" result="effect1_backgroundBlur_700_16776"/>
<feColorMatrix in="SourceAlpha" type="matrix" values="0 0 0 0 0 0 0 0 0 0 0 0 0 0 0 0 0 0 127 0" result="hardAlpha"/>
<feMorphology radius="2" operator="dilate" in="SourceAlpha" result="effect2_dropShadow_700_16776"/>
<feOffset/>
<feComposite in2="hardAlpha" operator="out"/>
<feColorMatrix type="matrix" values="0 0 0 0 0.0705882 0 0 0 0 0.0705882 0 0 0 0 0.0705882 0 0 0 0.6 0"/>
<feBlend mode="normal" in2="effect1_backgroundBlur_700_16776" result="effect2_dropShadow_700_16776"/>
<feBlend mode="normal" in="SourceGraphic" in2="effect2_dropShadow_700_16776" result="shape"/>
<feColorMatrix in="SourceAlpha" type="matrix" values="0 0 0 0 0 0 0 0 0 0 0 0 0 0 0 0 0 0 127 0" result="hardAlpha"/>
<feOffset dx="2" dy="4"/>
<feGaussianBlur stdDeviation="8"/>
<feComposite in2="hardAlpha" operator="arithmetic" k2="-1" k3="1"/>
<feColorMatrix type="matrix" values="0 0 0 0 0.972549 0 0 0 0 0.972549 0 0 0 0 0.972549 0 0 0 0.06 0"/>
<feBlend mode="normal" in2="shape" result="effect3_innerShadow_700_16776"/>
</filter>
<filter id="filter1_dd_700_16776" x="5.29412" y="18.9118" width="40.9412" height="35.2941" filterUnits="userSpaceOnUse" color-interpolation-filters="sRGB">
<feFlood flood-opacity="0" result="BackgroundImageFix"/>
<feColorMatrix in="SourceAlpha" type="matrix" values="0 0 0 0 0 0 0 0 0 0 0 0 0 0 0 0 0 0 127 0" result="hardAlpha"/>
<feOffset dx="-4.23529" dy="7.05882"/>
<feGaussianBlur stdDeviation="4.23529"/>
<feColorMatrix type="matrix" values="0 0 0 0 0 0 0 0 0 0 0 0 0 0 0 0 0 0 0.2 0"/>
<feBlend mode="normal" in2="BackgroundImageFix" result="effect1_dropShadow_700_16776"/>
<feColorMatrix in="SourceAlpha" type="matrix" values="0 0 0 0 0 0 0 0 0 0 0 0 0 0 0 0 0 0 127 0" result="hardAlpha"/>
<feOffset dx="-1.41176" dy="2.82353"/>
<feGaussianBlur stdDeviation="2.11765"/>
<feComposite in2="hardAlpha" operator="out"/>
<feColorMatrix type="matrix" values="0 0 0 0 0 0 0 0 0 0 0 0 0 0 0 0 0 0 0.1 0"/>
<feBlend mode="normal" in2="effect1_dropShadow_700_16776" result="effect2_dropShadow_700_16776"/>
<feBlend mode="normal" in="SourceGraphic" in2="effect2_dropShadow_700_16776" result="shape"/>
</filter>
<linearGradient id="paint0_linear_700_16776" x1="30" y1="2" x2="54.3611" y2="63.4948" gradientUnits="userSpaceOnUse">
<stop stop-color="white" stop-opacity="0.4"/>
<stop offset="0.4" stop-color="white" stop-opacity="0.01"/>
<stop offset="0.6" stop-color="white" stop-opacity="0.01"/>
<stop offset="1" stop-color="white" stop-opacity="0.1"/>
</linearGradient>
<linearGradient id="paint1_linear_700_16776" x1="30" y1="20.3236" x2="30" y2="38.6765" gradientUnits="userSpaceOnUse">
<stop stop-color="#F8F8F8" stop-opacity="0.9"/>
<stop offset="1" stop-color="#F8F8F8" stop-opacity="0.3"/>
</linearGradient>
</defs>
</svg>
