<svg width="1280" height="246" viewBox="0 0 1280 246" fill="none" xmlns="http://www.w3.org/2000/svg">
<mask id="path-1-outside-1_11005_8931" maskUnits="userSpaceOnUse" x="197" y="9" width="885" height="183" fill="black">
<rect fill="white" x="197" y="9" width="885" height="183"/>
<path d="M265.306 190C252.806 190 241.556 187.25 231.556 181.75C221.556 176.25 213.639 168.583 207.806 158.75C201.972 148.917 199.056 137.667 199.056 125C199.056 112.167 201.972 100.917 207.806 91.25C213.639 81.4167 221.556 73.75 231.556 68.25C241.722 62.75 252.972 60 265.306 60C277.806 60 289.056 62.75 299.056 68.25C309.056 73.75 316.972 81.4167 322.806 91.25C328.639 100.917 331.556 112.167 331.556 125C331.556 137.667 328.639 148.917 322.806 158.75C316.972 168.583 309.056 176.25 299.056 181.75C289.056 187.25 277.806 190 265.306 190ZM265.306 162C271.306 162 276.806 160.667 281.806 158C286.806 155.167 290.722 151 293.556 145.5C296.556 140 298.056 133.167 298.056 125C298.056 116.833 296.556 110 293.556 104.5C290.556 99 286.556 94.9167 281.556 92.25C276.722 89.4167 271.389 88 265.556 88C259.556 88 254.056 89.4167 249.056 92.25C244.056 95.0833 240.056 99.25 237.056 104.75C234.056 110.083 232.556 116.833 232.556 125C232.556 133.167 233.972 140 236.806 145.5C239.806 151 243.806 155.167 248.806 158C253.806 160.667 259.306 162 265.306 162ZM355.099 187V63H387.599V78.25C391.599 72.5833 396.849 68.1667 403.349 65C409.849 61.6667 417.182 60 425.349 60C434.849 60 443.015 61.9167 449.849 65.75C456.682 69.4167 462.015 74.8333 465.849 82C470.515 75.1667 476.599 69.8333 484.099 66C491.599 62 499.932 60 509.099 60C525.265 60 537.682 64.9167 546.349 74.75C555.015 84.4167 559.349 98.5833 559.349 117.25V187H527.099V120.25C527.099 109.583 525.015 101.5 520.849 96C516.849 90.3333 510.515 87.5 501.849 87.5C493.349 87.5 486.515 90.6667 481.349 97C476.182 103.167 473.599 111.833 473.599 123V187H441.349V120.25C441.349 109.583 439.182 101.5 434.849 96C430.682 90.3333 424.349 87.5 415.849 87.5C407.515 87.5 400.682 90.6667 395.349 97C390.182 103.167 387.599 111.833 387.599 123V187H355.099ZM587.452 187V63H619.952V81.75C623.952 75.0833 629.452 69.8333 636.452 66C643.452 62 651.619 60 660.952 60C676.452 60 688.369 64.9167 696.702 74.75C705.035 84.4167 709.202 98.5833 709.202 117.25V187H676.702V120.25C676.702 109.583 674.535 101.5 670.202 96C666.035 90.3333 659.369 87.5 650.202 87.5C641.369 87.5 634.119 90.6667 628.452 97C622.785 103.167 619.952 111.833 619.952 123V187H587.452ZM737.286 187V63H769.786V187H737.286ZM738.036 42.5V11H769.536V42.5H738.036ZM797.765 187V63H830.265V82C833.431 75.6667 837.515 70.75 842.515 67.25C847.515 63.5833 853.265 61.75 859.765 61.75H875.515V90.75H856.515C850.515 90.75 845.515 92.3333 841.515 95.5C837.681 98.6667 834.848 103.417 833.015 109.75C831.181 116.083 830.265 123.917 830.265 133.25V187H797.765ZM937.364 190C928.031 190 919.948 188.333 913.114 185C906.448 181.667 901.364 177.167 897.864 171.5C894.364 165.833 892.614 159.583 892.614 152.75C892.614 139.75 897.281 129.75 906.614 122.75C915.948 115.583 928.198 112 943.364 112C950.531 112 956.698 112.5 961.864 113.5C967.031 114.5 971.281 115.583 974.614 116.75V110.75C974.614 102.083 972.114 95.75 967.114 91.75C962.281 87.75 955.948 85.75 948.114 85.75C942.614 85.75 937.698 86.9167 933.364 89.25C929.031 91.4167 926.281 95.3333 925.114 101H894.364C895.364 92.1667 898.364 84.75 903.364 78.75C908.364 72.5833 914.698 67.9167 922.364 64.75C930.198 61.5833 938.781 60 948.114 60C966.614 60 981.031 64.4167 991.364 73.25C1001.86 82.0833 1007.11 94.5833 1007.11 110.75V138.75C1007.11 145.083 1007.45 149.75 1008.11 152.75C1008.95 155.75 1010.2 157.667 1011.86 158.5C1013.53 159.333 1015.78 159.75 1018.61 159.75H1019.61V187H1012.61C1003.78 187 996.448 185.833 990.614 183.5C984.781 181.167 980.531 176.583 977.864 169.75C973.698 175.583 968.198 180.417 961.364 184.25C954.531 188.083 946.531 190 937.364 190ZM944.614 165.25C949.948 165.25 954.448 164.083 958.114 161.75C961.948 159.25 965.114 155.917 967.614 151.75C970.114 147.417 971.864 142.75 972.864 137.75C969.364 136.75 965.281 135.833 960.614 135C956.114 134 951.531 133.5 946.864 133.5C940.364 133.5 935.114 135 931.114 138C927.281 140.833 925.364 144.833 925.364 150C925.364 154.5 927.031 158.167 930.364 161C933.864 163.833 938.614 165.25 944.614 165.25ZM1038.54 187V149H1079.04V187H1038.54Z"/>
</mask>
<path d="M231.556 181.75L232.52 179.998V179.998L231.556 181.75ZM207.806 158.75L209.526 157.73V157.73L207.806 158.75ZM207.806 91.25L209.518 92.2833L209.522 92.2769L209.526 92.2704L207.806 91.25ZM231.556 68.25L230.604 66.4909L230.592 66.4976L231.556 68.25ZM322.806 91.25L321.086 92.2704L321.089 92.2769L321.093 92.2833L322.806 91.25ZM322.806 158.75L321.086 157.73V157.73L322.806 158.75ZM299.056 181.75L298.092 179.998L299.056 181.75ZM281.806 158L282.747 159.765L282.769 159.753L282.792 159.74L281.806 158ZM293.556 145.5L291.8 144.542L291.789 144.563L291.778 144.584L293.556 145.5ZM281.556 92.25L280.544 93.9754L280.579 93.9958L280.615 94.0147L281.556 92.25ZM249.056 92.25L250.042 93.99V93.99L249.056 92.25ZM237.056 104.75L238.799 105.731L238.805 105.719L238.811 105.708L237.056 104.75ZM236.806 145.5L235.028 146.416L235.039 146.437L235.05 146.458L236.806 145.5ZM248.806 158L247.82 159.74L247.842 159.753L247.864 159.765L248.806 158ZM265.306 190V188C253.11 188 242.197 185.32 232.52 179.998L231.556 181.75L230.592 183.502C240.915 189.18 252.502 192 265.306 192V190ZM231.556 181.75L232.52 179.998C222.833 174.67 215.177 167.256 209.526 157.73L207.806 158.75L206.086 159.77C212.101 169.91 220.278 177.83 230.592 183.502L231.556 181.75ZM207.806 158.75L209.526 157.73C203.895 148.238 201.056 137.347 201.056 125H199.056H197.056C197.056 137.986 200.05 149.596 206.086 159.77L207.806 158.75ZM199.056 125H201.056C201.056 112.48 203.898 101.597 209.518 92.2833L207.806 91.25L206.093 90.2167C200.047 100.236 197.056 111.853 197.056 125H199.056ZM207.806 91.25L209.526 92.2704C215.177 82.7436 222.833 75.33 232.52 70.0024L231.556 68.25L230.592 66.4976C220.278 72.17 212.101 80.0897 206.086 90.2296L207.806 91.25ZM231.556 68.25L232.507 70.0091C242.362 64.6778 253.282 62 265.306 62V60V58C252.663 58 241.082 60.8222 230.604 66.4909L231.556 68.25ZM265.306 60V62C277.502 62 288.415 64.68 298.092 70.0024L299.056 68.25L300.02 66.4976C289.697 60.82 278.11 58 265.306 58V60ZM299.056 68.25L298.092 70.0024C307.778 75.33 315.434 82.7436 321.086 92.2704L322.806 91.25L324.526 90.2296C318.511 80.0897 310.333 72.17 300.02 66.4976L299.056 68.25ZM322.806 91.25L321.093 92.2833C326.714 101.597 329.556 112.48 329.556 125H331.556H333.556C333.556 111.853 330.564 100.236 324.518 90.2167L322.806 91.25ZM331.556 125H329.556C329.556 137.347 326.716 148.238 321.086 157.73L322.806 158.75L324.526 159.77C330.562 149.596 333.556 137.986 333.556 125H331.556ZM322.806 158.75L321.086 157.73C315.434 167.256 307.778 174.67 298.092 179.998L299.056 181.75L300.02 183.502C310.333 177.83 318.511 169.91 324.526 159.77L322.806 158.75ZM299.056 181.75L298.092 179.998C288.415 185.32 277.502 188 265.306 188V190V192C278.11 192 289.697 189.18 300.02 183.502L299.056 181.75ZM265.306 162V164C271.614 164 277.44 162.595 282.747 159.765L281.806 158L280.864 156.235C276.171 158.738 270.997 160 265.306 160V162ZM281.806 158L282.792 159.74C288.156 156.7 292.336 152.234 295.334 146.416L293.556 145.5L291.778 144.584C289.108 149.766 285.455 153.633 280.82 156.26L281.806 158ZM293.556 145.5L295.311 146.458C298.513 140.588 300.056 133.403 300.056 125H298.056H296.056C296.056 132.931 294.598 139.412 291.8 144.542L293.556 145.5ZM298.056 125H300.056C300.056 116.597 298.513 109.412 295.311 103.542L293.556 104.5L291.8 105.458C294.598 110.588 296.056 117.069 296.056 125H298.056ZM293.556 104.5L295.311 103.542C292.145 97.7371 287.877 93.3548 282.497 90.4853L281.556 92.25L280.615 94.0147C285.234 96.4785 288.966 100.263 291.8 105.458L293.556 104.5ZM281.556 92.25L282.567 90.5246C277.414 87.5039 271.729 86 265.556 86V88V90C271.049 90 276.031 91.3295 280.544 93.9754L281.556 92.25ZM265.556 88V86C259.226 86 253.384 87.4986 248.07 90.51L249.056 92.25L250.042 93.99C254.728 91.3347 259.885 90 265.556 90V88ZM249.056 92.25L248.07 90.51C242.716 93.5436 238.462 97.9954 235.3 103.792L237.056 104.75L238.811 105.708C241.65 100.505 245.395 96.623 250.042 93.99L249.056 92.25ZM237.056 104.75L235.313 103.769C232.097 109.486 230.556 116.601 230.556 125H232.556H234.556C234.556 117.066 236.014 110.681 238.799 105.731L237.056 104.75ZM232.556 125H230.556C230.556 133.387 232.009 140.557 235.028 146.416L236.806 145.5L238.584 144.584C235.935 139.443 234.556 132.946 234.556 125H232.556ZM236.806 145.5L235.05 146.458C238.212 152.255 242.466 156.706 247.82 159.74L248.806 158L249.792 156.26C245.145 153.627 241.4 149.745 238.561 144.542L236.806 145.5ZM248.806 158L247.864 159.765C253.171 162.595 258.997 164 265.306 164V162V160C259.614 160 254.44 158.738 249.747 156.235L248.806 158ZM355.099 187H353.099V189H355.099V187ZM355.099 63V61H353.099V63H355.099ZM387.599 63H389.599V61H387.599V63ZM387.599 78.25H385.599V84.5514L389.233 79.4034L387.599 78.25ZM403.349 65L404.225 66.798L404.243 66.789L404.261 66.7796L403.349 65ZM449.849 65.75L448.87 67.4943L448.886 67.5035L448.903 67.5123L449.849 65.75ZM465.849 82L464.085 82.9433L465.64 85.8512L467.5 83.1279L465.849 82ZM484.099 66L485.009 67.7809L485.024 67.7729L485.04 67.7647L484.099 66ZM546.349 74.75L544.848 76.0724L544.854 76.0788L544.859 76.0851L546.349 74.75ZM559.349 187V189H561.349V187H559.349ZM527.099 187H525.099V189H527.099V187ZM520.849 96L519.215 97.1534L519.234 97.1809L519.254 97.2077L520.849 96ZM481.349 97L482.882 98.2844L482.89 98.2744L482.898 98.2643L481.349 97ZM473.599 187V189H475.599V187H473.599ZM441.349 187H439.349V189H441.349V187ZM434.849 96L433.237 97.1848L433.257 97.2116L433.278 97.2377L434.849 96ZM395.349 97L393.819 95.7117L393.816 95.7156L395.349 97ZM387.599 187V189H389.599V187H387.599ZM355.099 187H357.099V63H355.099H353.099V187H355.099ZM355.099 63V65H387.599V63V61H355.099V63ZM387.599 63H385.599V78.25H387.599H389.599V63H387.599ZM387.599 78.25L389.233 79.4034C393.03 74.0239 398.014 69.8236 404.225 66.798L403.349 65L402.473 63.202C395.683 66.5098 390.167 71.1428 385.965 77.0966L387.599 78.25ZM403.349 65L404.261 66.7796C410.447 63.6075 417.461 62 425.349 62V60V58C416.902 58 409.25 59.7258 402.436 63.2204L403.349 65ZM425.349 60V62C434.578 62 442.393 63.8608 448.87 67.4943L449.849 65.75L450.827 64.0057C443.638 59.9725 435.119 58 425.349 58V60ZM449.849 65.75L448.903 67.5123C455.372 70.9833 460.428 76.1067 464.085 82.9433L465.849 82L467.612 81.0567C463.602 73.56 457.992 67.85 450.794 63.9877L449.849 65.75ZM465.849 82L467.5 83.1279C471.975 76.5759 477.801 71.4648 485.009 67.7809L484.099 66L483.188 64.2191C475.396 68.2018 469.056 73.7574 464.197 80.8721L465.849 82ZM484.099 66L485.04 67.7647C492.228 63.9312 500.234 62 509.099 62V60V58C499.63 58 490.97 60.0688 483.157 64.2353L484.099 66ZM509.099 60V62C524.836 62 536.648 66.7679 544.848 76.0724L546.349 74.75L547.849 73.4276C538.716 63.0654 525.694 58 509.099 58V60ZM546.349 74.75L544.859 76.0851C553.078 85.2522 557.349 98.8628 557.349 117.25H559.349H561.349C561.349 98.3039 556.952 83.5811 547.838 73.4149L546.349 74.75ZM559.349 117.25H557.349V187H559.349H561.349V117.25H559.349ZM559.349 187V185H527.099V187V189H559.349V187ZM527.099 187H529.099V120.25H527.099H525.099V187H527.099ZM527.099 120.25H529.099C529.099 109.371 526.982 100.784 522.443 94.7923L520.849 96L519.254 97.2077C523.049 102.216 525.099 109.796 525.099 120.25H527.099ZM520.849 96L522.483 94.8466C518.014 88.5161 510.983 85.5 501.849 85.5V87.5V89.5C510.047 89.5 515.683 92.1506 519.215 97.1534L520.849 96ZM501.849 87.5V85.5C492.775 85.5 485.363 88.9158 479.799 95.7357L481.349 97L482.898 98.2643C487.668 92.4176 493.922 89.5 501.849 89.5V87.5ZM481.349 97L479.816 95.7156C474.249 102.36 471.599 111.545 471.599 123H473.599H475.599C475.599 112.122 478.115 103.973 482.882 98.2844L481.349 97ZM473.599 123H471.599V187H473.599H475.599V123H473.599ZM473.599 187V185H441.349V187V189H473.599V187ZM441.349 187H443.349V120.25H441.349H439.349V187H441.349ZM441.349 120.25H443.349C443.349 109.358 441.143 100.757 436.42 94.7623L434.849 96L433.278 97.2377C437.221 102.243 439.349 109.809 439.349 120.25H441.349ZM434.849 96L436.46 94.8152C431.836 88.5266 424.836 85.5 415.849 85.5V87.5V89.5C423.862 89.5 429.528 92.1401 433.237 97.1848L434.849 96ZM415.849 87.5V85.5C406.93 85.5 399.535 88.9238 393.819 95.7117L395.349 97L396.878 98.2883C401.829 92.4096 408.101 89.5 415.849 89.5V87.5ZM395.349 97L393.816 95.7156C388.249 102.36 385.599 111.545 385.599 123H387.599H389.599C389.599 112.122 392.115 103.973 396.882 98.2844L395.349 97ZM387.599 123H385.599V187H387.599H389.599V123H387.599ZM387.599 187V185H355.099V187V189H387.599V187ZM587.452 187H585.452V189H587.452V187ZM587.452 63V61H585.452V63H587.452ZM619.952 63H621.952V61H619.952V63ZM619.952 81.75H617.952V88.9706L621.667 82.779L619.952 81.75ZM636.452 66L637.413 67.7542L637.429 67.7455L637.444 67.7365L636.452 66ZM696.702 74.75L695.176 76.043L695.182 76.0495L695.187 76.0559L696.702 74.75ZM709.202 187V189H711.202V187H709.202ZM676.702 187H674.702V189H676.702V187ZM670.202 96L668.591 97.1848L668.611 97.2116L668.631 97.2377L670.202 96ZM628.452 97L629.925 98.3532L629.934 98.3435L629.943 98.3336L628.452 97ZM619.952 187V189H621.952V187H619.952ZM587.452 187H589.452V63H587.452H585.452V187H587.452ZM587.452 63V65H619.952V63V61H587.452V63ZM619.952 63H617.952V81.75H619.952H621.952V63H619.952ZM619.952 81.75L621.667 82.779C625.479 76.4251 630.715 71.4218 637.413 67.7542L636.452 66L635.492 64.2458C628.189 68.2449 622.425 73.7416 618.237 80.721L619.952 81.75ZM636.452 66L637.444 67.7365C644.097 63.9348 651.911 62 660.952 62V60V58C651.326 58 642.807 60.0652 635.46 64.2635L636.452 66ZM660.952 60V62C675.995 62 687.3 66.7492 695.176 76.043L696.702 74.75L698.228 73.4569C689.437 63.0842 676.909 58 660.952 58V60ZM696.702 74.75L695.187 76.0559C703.09 85.2235 707.202 98.8461 707.202 117.25H709.202H711.202C711.202 98.3206 706.98 83.6098 698.217 73.4441L696.702 74.75ZM709.202 117.25H707.202V187H709.202H711.202V117.25H709.202ZM709.202 187V185H676.702V187V189H709.202V187ZM676.702 187H678.702V120.25H676.702H674.702V187H676.702ZM676.702 120.25H678.702C678.702 109.358 676.497 100.757 671.773 94.7623L670.202 96L668.631 97.2377C672.574 102.243 674.702 109.809 674.702 120.25H676.702ZM670.202 96L671.813 94.8152C667.16 88.4865 659.793 85.5 650.202 85.5V87.5V89.5C658.944 89.5 664.911 92.1802 668.591 97.1848L670.202 96ZM650.202 87.5V85.5C640.825 85.5 633.024 88.8904 626.962 95.6664L628.452 97L629.943 98.3336C635.213 92.4429 641.912 89.5 650.202 89.5V87.5ZM628.452 97L626.979 95.6467C620.874 102.291 617.952 111.503 617.952 123H619.952H621.952C621.952 112.164 624.697 104.042 629.925 98.3532L628.452 97ZM619.952 123H617.952V187H619.952H621.952V123H619.952ZM619.952 187V185H587.452V187V189H619.952V187ZM737.286 187H735.286V189H737.286V187ZM737.286 63V61H735.286V63H737.286ZM769.786 63H771.786V61H769.786V63ZM769.786 187V189H771.786V187H769.786ZM738.036 42.5H736.036V44.5H738.036V42.5ZM738.036 11V8.99998H736.036V11H738.036ZM769.536 11H771.536V8.99998H769.536V11ZM769.536 42.5V44.5H771.536V42.5H769.536ZM737.286 187H739.286V63H737.286H735.286V187H737.286ZM737.286 63V65H769.786V63V61H737.286V63ZM769.786 63H767.786V187H769.786H771.786V63H769.786ZM769.786 187V185H737.286V187V189H769.786V187ZM738.036 42.5H740.036V11H738.036H736.036V42.5H738.036ZM738.036 11V13H769.536V11V8.99998H738.036V11ZM769.536 11H767.536V42.5H769.536H771.536V11H769.536ZM769.536 42.5V40.5H738.036V42.5V44.5H769.536V42.5ZM797.765 187H795.765V189H797.765V187ZM797.765 63V61H795.765V63H797.765ZM830.265 63H832.265V61H830.265V63ZM830.265 82H828.265L832.054 82.8944L830.265 82ZM842.515 67.25L843.662 68.8885L843.68 68.8758L843.697 68.8628L842.515 67.25ZM875.515 61.75H877.515V59.75H875.515V61.75ZM875.515 90.75V92.75H877.515V90.75H875.515ZM841.515 95.5L840.273 93.9319L840.257 93.9448L840.241 93.9581L841.515 95.5ZM833.015 109.75L834.936 110.306V110.306L833.015 109.75ZM830.265 187V189H832.265V187H830.265ZM797.765 187H799.765V63H797.765H795.765V187H797.765ZM797.765 63V65H830.265V63V61H797.765V63ZM830.265 63H828.265V82H830.265H832.265V63H830.265ZM830.265 82L832.054 82.8944C835.095 76.8107 838.975 72.1691 843.662 68.8885L842.515 67.25L841.368 65.6115C836.054 69.3308 831.767 74.5226 828.476 81.1056L830.265 82ZM842.515 67.25L843.697 68.8628C848.337 65.4604 853.668 63.75 859.765 63.75V61.75V59.75C852.861 59.75 846.692 61.7063 841.332 65.6372L842.515 67.25ZM859.765 61.75V63.75H875.515V61.75V59.75H859.765V61.75ZM875.515 61.75H873.515V90.75H875.515H877.515V61.75H875.515ZM875.515 90.75V88.75H856.515V90.75V92.75H875.515V90.75ZM856.515 90.75V88.75C850.147 88.75 844.686 90.4382 840.273 93.9319L841.515 95.5L842.756 97.0681C846.343 94.2285 850.883 92.75 856.515 92.75V90.75ZM841.515 95.5L840.241 93.9581C836.011 97.4522 833.003 102.598 831.094 109.194L833.015 109.75L834.936 110.306C836.693 104.235 839.352 99.8811 842.788 97.0419L841.515 95.5ZM833.015 109.75L831.094 109.194C829.191 115.766 828.265 123.8 828.265 133.25H830.265H832.265C832.265 124.033 833.171 116.401 834.936 110.306L833.015 109.75ZM830.265 133.25H828.265V187H830.265H832.265V133.25H830.265ZM830.265 187V185H797.765V187V189H830.265V187ZM913.114 185L912.22 186.789L912.229 186.793L912.237 186.798L913.114 185ZM897.864 171.5L899.566 170.449V170.449L897.864 171.5ZM906.614 122.75L907.814 124.35L907.823 124.343L907.832 124.336L906.614 122.75ZM961.864 113.5L961.484 115.464H961.484L961.864 113.5ZM974.614 116.75L973.954 118.638L976.614 119.569V116.75H974.614ZM967.114 91.75L965.839 93.2908L965.852 93.3014L965.865 93.3117L967.114 91.75ZM933.364 89.25L934.259 91.0388L934.286 91.0253L934.312 91.0109L933.364 89.25ZM925.114 101V103H926.744L927.073 101.403L925.114 101ZM894.364 101L892.377 100.775L892.125 103H894.364V101ZM903.364 78.75L904.901 80.0304L904.909 80.02L904.918 80.0096L903.364 78.75ZM922.364 64.75L921.615 62.8958L921.608 62.8986L921.601 62.9015L922.364 64.75ZM991.364 73.25L990.065 74.7702L990.071 74.7754L990.077 74.7804L991.364 73.25ZM1008.11 152.75L1006.16 153.184L1006.17 153.235L1006.19 153.285L1008.11 152.75ZM1011.86 158.5L1010.97 160.289V160.289L1011.86 158.5ZM1019.61 159.75H1021.61V157.75H1019.61V159.75ZM1019.61 187V189H1021.61V187H1019.61ZM977.864 169.75L979.727 169.023L978.384 165.581L976.237 168.588L977.864 169.75ZM958.114 161.75L959.188 163.437L959.197 163.431L959.207 163.425L958.114 161.75ZM967.614 151.75L969.329 152.779L969.338 152.764L969.347 152.749L967.614 151.75ZM972.864 137.75L974.825 138.142L975.187 136.334L973.414 135.827L972.864 137.75ZM960.614 135L960.18 136.952L960.221 136.961L960.263 136.969L960.614 135ZM931.114 138L932.303 139.608L932.314 139.6L931.114 138ZM930.364 161L929.069 162.524L929.087 162.539L929.106 162.554L930.364 161ZM937.364 190V188C928.267 188 920.496 186.376 913.991 183.202L913.114 185L912.237 186.798C919.399 190.291 927.795 192 937.364 192V190ZM913.114 185L914.009 183.211C907.634 180.024 902.848 175.763 899.566 170.449L897.864 171.5L896.163 172.551C899.881 178.57 905.261 183.31 912.22 186.789L913.114 185ZM897.864 171.5L899.566 170.449C896.266 165.107 894.614 159.222 894.614 152.75H892.614H890.614C890.614 159.944 892.462 166.56 896.163 172.551L897.864 171.5ZM892.614 152.75H894.614C894.614 140.297 899.047 130.925 907.814 124.35L906.614 122.75L905.414 121.15C895.515 128.575 890.614 139.203 890.614 152.75H892.614ZM906.614 122.75L907.832 124.336C916.727 117.507 928.51 114 943.364 114V112V110C927.885 110 915.169 113.66 905.396 121.164L906.614 122.75ZM943.364 112V114C950.446 114 956.478 114.495 961.484 115.464L961.864 113.5L962.244 111.536C956.917 110.505 950.616 110 943.364 110V112ZM961.864 113.5L961.484 115.464C966.597 116.453 970.744 117.515 973.954 118.638L974.614 116.75L975.275 114.862C971.817 113.652 967.465 112.547 962.244 111.536L961.864 113.5ZM974.614 116.75H976.614V110.75H974.614H972.614V116.75H974.614ZM974.614 110.75H976.614C976.614 101.705 973.992 94.6909 968.364 90.1883L967.114 91.75L965.865 93.3117C970.237 96.8091 972.614 102.462 972.614 110.75H974.614ZM967.114 91.75L968.389 90.2092C963.115 85.8445 956.294 83.75 948.114 83.75V85.75V87.75C955.601 87.75 961.447 89.6555 965.839 93.2908L967.114 91.75ZM948.114 85.75V83.75C942.323 83.75 937.074 84.9811 932.416 87.4891L933.364 89.25L934.312 91.0109C938.321 88.8523 942.906 87.75 948.114 87.75V85.75ZM933.364 89.25L932.47 87.4611C927.479 89.9564 924.419 94.4596 923.155 100.597L925.114 101L927.073 101.403C928.143 96.2071 930.583 92.8769 934.259 91.0388L933.364 89.25ZM925.114 101V99H894.364V101V103H925.114V101ZM894.364 101L896.352 101.225C897.314 92.7247 900.184 85.6901 904.901 80.0304L903.364 78.75L901.828 77.4696C896.544 83.8099 893.415 91.6087 892.377 100.775L894.364 101ZM903.364 78.75L904.918 80.0096C909.698 74.1138 915.755 69.6437 923.128 66.5985L922.364 64.75L921.601 62.9015C913.64 66.1896 907.03 71.0528 901.811 77.4904L903.364 78.75ZM922.364 64.75L923.114 66.6042C930.685 63.5434 939.011 62 948.114 62V60V58C938.551 58 929.71 59.6232 921.615 62.8958L922.364 64.75ZM948.114 60V62C966.31 62 980.206 66.3426 990.065 74.7702L991.364 73.25L992.664 71.7298C981.856 62.4907 966.918 58 948.114 58V60ZM991.364 73.25L990.077 74.7804C1000.04 83.1646 1005.11 95.0571 1005.11 110.75H1007.11H1009.11C1009.11 94.1096 1003.69 81.002 992.652 71.7195L991.364 73.25ZM1007.11 110.75H1005.11V138.75H1007.11H1009.11V110.75H1007.11ZM1007.11 138.75H1005.11C1005.11 145.11 1005.45 149.959 1006.16 153.184L1008.11 152.75L1010.07 152.316C1009.45 149.541 1009.11 145.057 1009.11 138.75H1007.11ZM1008.11 152.75L1006.19 153.285C1007.07 156.479 1008.54 159.076 1010.97 160.289L1011.86 158.5L1012.76 156.711C1011.85 156.257 1010.82 155.021 1010.04 152.215L1008.11 152.75ZM1011.86 158.5L1010.97 160.289C1013.02 161.315 1015.62 161.75 1018.61 161.75V159.75V157.75C1015.94 157.75 1014.04 157.352 1012.76 156.711L1011.86 158.5ZM1018.61 159.75V161.75H1019.61V159.75V157.75H1018.61V159.75ZM1019.61 159.75H1017.61V187H1019.61H1021.61V159.75H1019.61ZM1019.61 187V185H1012.61V187V189H1019.61V187ZM1012.61 187V185C1003.94 185 996.879 183.852 991.357 181.643L990.614 183.5L989.871 185.357C996.016 187.815 1003.62 189 1012.61 189V187ZM990.614 183.5L991.357 181.643C986.124 179.55 982.23 175.435 979.727 169.023L977.864 169.75L976.001 170.477C978.832 177.732 983.438 182.783 989.871 185.357L990.614 183.5ZM977.864 169.75L976.237 168.588C972.256 174.16 966.987 178.803 960.386 182.506L961.364 184.25L962.343 185.994C969.408 182.031 975.139 177.007 979.492 170.912L977.864 169.75ZM961.364 184.25L960.386 182.506C953.899 186.145 946.247 188 937.364 188V190V192C946.815 192 955.163 190.022 962.343 185.994L961.364 184.25ZM944.614 165.25V167.25C950.241 167.25 955.134 166.017 959.188 163.437L958.114 161.75L957.041 160.063C953.761 162.15 949.654 163.25 944.614 163.25V165.25ZM958.114 161.75L959.207 163.425C963.309 160.75 966.683 157.189 969.329 152.779L967.614 151.75L965.899 150.721C963.545 154.644 960.586 157.75 957.022 160.075L958.114 161.75ZM967.614 151.75L969.347 152.749C971.958 148.224 973.784 143.352 974.825 138.142L972.864 137.75L970.903 137.358C969.945 142.148 968.271 146.609 965.882 150.751L967.614 151.75ZM972.864 137.75L973.414 135.827C969.833 134.804 965.68 133.873 960.966 133.031L960.614 135L960.263 136.969C964.881 137.794 968.896 138.696 972.315 139.673L972.864 137.75ZM960.614 135L961.048 133.048C956.404 132.016 951.675 131.5 946.864 131.5V133.5V135.5C951.387 135.5 955.825 135.984 960.18 136.952L960.614 135ZM946.864 133.5V131.5C940.062 131.5 934.352 133.072 929.914 136.4L931.114 138L932.314 139.6C935.877 136.928 940.667 135.5 946.864 135.5V133.5ZM931.114 138L929.925 136.392C925.534 139.637 923.364 144.261 923.364 150H925.364H927.364C927.364 145.406 929.028 142.029 932.303 139.608L931.114 138ZM925.364 150H923.364C923.364 155.067 925.274 159.298 929.069 162.524L930.364 161L931.66 159.476C928.788 157.035 927.364 153.933 927.364 150H925.364ZM930.364 161L929.106 162.554C933.065 165.759 938.309 167.25 944.614 167.25V165.25V163.25C938.92 163.25 934.664 161.907 931.623 159.446L930.364 161ZM1038.54 187H1036.54V189H1038.54V187ZM1038.54 149V147H1036.54V149H1038.54ZM1079.04 149H1081.04V147H1079.04V149ZM1079.04 187V189H1081.04V187H1079.04ZM1038.54 187H1040.54V149H1038.54H1036.54V187H1038.54ZM1038.54 149V151H1079.04V149V147H1038.54V149ZM1079.04 149H1077.04V187H1079.04H1081.04V149H1079.04ZM1079.04 187V185H1038.54V187V189H1079.04V187Z" fill="url(#paint0_linear_11005_8931)" fill-opacity="0.95" mask="url(#path-1-outside-1_11005_8931)"/>
<defs>
<linearGradient id="paint0_linear_11005_8931" x1="752" y1="-5.5" x2="753.5" y2="201" gradientUnits="userSpaceOnUse">
<stop stop-color="#474747" stop-opacity="0.23"/>
<stop offset="1" stop-color="#F8F8F8" stop-opacity="0"/>
</linearGradient>
</defs>
</svg>
