<svg width="187" height="60" viewBox="0 0 187 60" fill="none" xmlns="http://www.w3.org/2000/svg">
<path d="M30.5041 42.42C28.0774 42.42 25.9424 41.8833 24.0991 40.81C22.2558 39.7367 20.8091 38.255 19.7591 36.365C18.7324 34.475 18.2191 32.27 18.2191 29.75C18.2191 27.2533 18.7324 25.06 19.7591 23.17C20.8091 21.2567 22.2558 19.7633 24.0991 18.69C25.9424 17.6167 28.0774 17.08 30.5041 17.08C32.9541 17.08 35.0891 17.6167 36.9091 18.69C38.7524 19.7633 40.1874 21.2567 41.2141 23.17C42.2641 25.06 42.7891 27.2533 42.7891 29.75C42.7891 32.27 42.2641 34.475 41.2141 36.365C40.1874 38.255 38.7524 39.7367 36.9091 40.81C35.0891 41.8833 32.9541 42.42 30.5041 42.42ZM30.5391 38.325C32.0791 38.325 33.4208 37.9867 34.5641 37.31C35.7074 36.61 36.5941 35.6183 37.2241 34.335C37.8541 33.0517 38.1691 31.5233 38.1691 29.75C38.1691 27.9767 37.8541 26.4483 37.2241 25.165C36.5941 23.8817 35.7074 22.9017 34.5641 22.225C33.4208 21.525 32.0791 21.175 30.5391 21.175C28.9991 21.175 27.6458 21.525 26.4791 22.225C25.3358 22.9017 24.4491 23.8817 23.8191 25.165C23.1891 26.4483 22.8741 27.9767 22.8741 29.75C22.8741 31.5233 23.1891 33.0517 23.8191 34.335C24.4491 35.6183 25.3358 36.61 26.4791 37.31C27.6458 37.9867 28.9991 38.325 30.5391 38.325Z" fill="#D2FE17"/>
<g filter="url(#filter0_ii_11005_8933)">
<path d="M58 30C58 14.536 45.464 2 30 2C14.536 2 2 14.536 2 30C2 45.464 14.536 58 30 58C45.464 58 58 45.464 58 30Z" fill="#F8F8F8" fill-opacity="0.03"/>
<path d="M57.25 30C57.25 14.9502 45.0498 2.75 30 2.75C14.9502 2.75 2.75 14.9502 2.75 30C2.75 45.0498 14.9502 57.25 30 57.25C45.0498 57.25 57.25 45.0498 57.25 30Z" stroke="url(#paint0_linear_11005_8933)" stroke-opacity="0.15" stroke-width="1.5"/>
</g>
<path d="M74.8083 38.336C73.4083 38.336 72.1483 38.028 71.0283 37.412C69.9083 36.796 69.0216 35.9373 68.3683 34.836C67.715 33.7347 67.3883 32.4747 67.3883 31.056C67.3883 29.6187 67.715 28.3587 68.3683 27.276C69.0216 26.1747 69.9083 25.316 71.0283 24.7C72.167 24.084 73.427 23.776 74.8083 23.776C76.2083 23.776 77.4683 24.084 78.5883 24.7C79.7083 25.316 80.595 26.1747 81.2483 27.276C81.9016 28.3587 82.2283 29.6187 82.2283 31.056C82.2283 32.4747 81.9016 33.7347 81.2483 34.836C80.595 35.9373 79.7083 36.796 78.5883 37.412C77.4683 38.028 76.2083 38.336 74.8083 38.336ZM74.8083 35.2C75.4803 35.2 76.0963 35.0507 76.6563 34.752C77.2163 34.4347 77.655 33.968 77.9723 33.352C78.3083 32.736 78.4763 31.9707 78.4763 31.056C78.4763 30.1413 78.3083 29.376 77.9723 28.76C77.6363 28.144 77.1883 27.6867 76.6283 27.388C76.087 27.0707 75.4896 26.912 74.8363 26.912C74.1643 26.912 73.5483 27.0707 72.9883 27.388C72.4283 27.7053 71.9803 28.172 71.6443 28.788C71.3083 29.3853 71.1403 30.1413 71.1403 31.056C71.1403 31.9707 71.299 32.736 71.6163 33.352C71.9523 33.968 72.4003 34.4347 72.9603 34.752C73.5203 35.0507 74.1363 35.2 74.8083 35.2ZM83.4651 38V24.112H87.1051V25.82C87.5531 25.1853 88.1411 24.6907 88.8691 24.336C89.5971 23.9627 90.4184 23.776 91.3331 23.776C92.3971 23.776 93.3118 23.9907 94.0771 24.42C94.8424 24.8307 95.4398 25.4373 95.8691 26.24C96.3918 25.4747 97.0731 24.8773 97.9131 24.448C98.7531 24 99.6864 23.776 100.713 23.776C102.524 23.776 103.914 24.3267 104.885 25.428C105.856 26.5107 106.341 28.0973 106.341 30.188V38H102.729V30.524C102.729 29.3293 102.496 28.424 102.029 27.808C101.581 27.1733 100.872 26.856 99.9011 26.856C98.9491 26.856 98.1838 27.2107 97.6051 27.92C97.0264 28.6107 96.7371 29.5813 96.7371 30.832V38H93.1251V30.524C93.1251 29.3293 92.8824 28.424 92.3971 27.808C91.9304 27.1733 91.2211 26.856 90.2691 26.856C89.3358 26.856 88.5704 27.2107 87.9731 27.92C87.3944 28.6107 87.1051 29.5813 87.1051 30.832V38H83.4651ZM108.089 38V24.112H111.729V26.212C112.177 25.4653 112.793 24.8773 113.577 24.448C114.361 24 115.275 23.776 116.321 23.776C118.057 23.776 119.391 24.3267 120.325 25.428C121.258 26.5107 121.725 28.0973 121.725 30.188V38H118.085V30.524C118.085 29.3293 117.842 28.424 117.357 27.808C116.89 27.1733 116.143 26.856 115.117 26.856C114.127 26.856 113.315 27.2107 112.681 27.92C112.046 28.6107 111.729 29.5813 111.729 30.832V38H108.089ZM123.47 38V24.112H127.11V38H123.47ZM123.554 21.816V18.288H127.082V21.816H123.554Z" fill="#A3A3A6"/>
<path d="M129.294 38V24.112H132.934V26.24C133.289 25.5307 133.746 24.98 134.306 24.588C134.866 24.1773 135.51 23.972 136.238 23.972H138.002V27.22H135.874C135.202 27.22 134.642 27.3973 134.194 27.752C133.765 28.1067 133.447 28.6387 133.242 29.348C133.037 30.0573 132.934 30.9347 132.934 31.98V38H129.294ZM143.529 38.336C142.484 38.336 141.578 38.1493 140.813 37.776C140.066 37.4027 139.497 36.8987 139.105 36.264C138.713 35.6293 138.517 34.9293 138.517 34.164C138.517 32.708 139.04 31.588 140.085 30.804C141.13 30.0013 142.502 29.6 144.201 29.6C145.004 29.6 145.694 29.656 146.273 29.768C146.852 29.88 147.328 30.0013 147.701 30.132V29.46C147.701 28.4893 147.421 27.78 146.861 27.332C146.32 26.884 145.61 26.66 144.733 26.66C144.117 26.66 143.566 26.7907 143.081 27.052C142.596 27.2947 142.288 27.7333 142.157 28.368H138.713C138.825 27.3787 139.161 26.548 139.721 25.876C140.281 25.1853 140.99 24.6627 141.849 24.308C142.726 23.9533 143.688 23.776 144.733 23.776C146.805 23.776 148.42 24.2707 149.577 25.26C150.753 26.2493 151.341 27.6493 151.341 29.46V32.596C151.341 33.3053 151.378 33.828 151.453 34.164C151.546 34.5 151.686 34.7147 151.873 34.808C152.06 34.9013 152.312 34.948 152.629 34.948H152.741V38H151.957C150.968 38 150.146 37.8693 149.493 37.608C148.84 37.3467 148.364 36.8333 148.065 36.068C147.598 36.7213 146.982 37.2627 146.217 37.692C145.452 38.1213 144.556 38.336 143.529 38.336ZM144.341 35.564C144.938 35.564 145.442 35.4333 145.853 35.172C146.282 34.892 146.637 34.5187 146.917 34.052C147.197 33.5667 147.393 33.044 147.505 32.484C147.113 32.372 146.656 32.2693 146.133 32.176C145.629 32.064 145.116 32.008 144.593 32.008C143.865 32.008 143.277 32.176 142.829 32.512C142.4 32.8293 142.185 33.2773 142.185 33.856C142.185 34.36 142.372 34.7707 142.745 35.088C143.137 35.4053 143.669 35.564 144.341 35.564ZM153.46 38V33.744H157.996V38H153.46Z" fill="#C9C9CB"/>
<defs>
<filter id="filter0_ii_11005_8933" x="2" y="2" width="58" height="60" filterUnits="userSpaceOnUse" color-interpolation-filters="sRGB">
<feFlood flood-opacity="0" result="BackgroundImageFix"/>
<feBlend mode="normal" in="SourceGraphic" in2="BackgroundImageFix" result="shape"/>
<feColorMatrix in="SourceAlpha" type="matrix" values="0 0 0 0 0 0 0 0 0 0 0 0 0 0 0 0 0 0 127 0" result="hardAlpha"/>
<feOffset/>
<feGaussianBlur stdDeviation="2"/>
<feComposite in2="hardAlpha" operator="arithmetic" k2="-1" k3="1"/>
<feColorMatrix type="matrix" values="0 0 0 0 0.0705882 0 0 0 0 0.0705882 0 0 0 0 0.0705882 0 0 0 0.6 0"/>
<feBlend mode="normal" in2="shape" result="effect1_innerShadow_11005_8933"/>
<feColorMatrix in="SourceAlpha" type="matrix" values="0 0 0 0 0 0 0 0 0 0 0 0 0 0 0 0 0 0 127 0" result="hardAlpha"/>
<feOffset dx="2" dy="4"/>
<feGaussianBlur stdDeviation="8"/>
<feComposite in2="hardAlpha" operator="arithmetic" k2="-1" k3="1"/>
<feColorMatrix type="matrix" values="0 0 0 0 0.972549 0 0 0 0 0.972549 0 0 0 0 0.972549 0 0 0 0.06 0"/>
<feBlend mode="normal" in2="effect1_innerShadow_11005_8933" result="effect2_innerShadow_11005_8933"/>
</filter>
<linearGradient id="paint0_linear_11005_8933" x1="30" y1="2" x2="54.3611" y2="63.4948" gradientUnits="userSpaceOnUse">
<stop stop-color="white" stop-opacity="0.4"/>
<stop offset="0.4" stop-color="white" stop-opacity="0.01"/>
<stop offset="0.6" stop-color="white" stop-opacity="0.01"/>
<stop offset="1" stop-color="white" stop-opacity="0.1"/>
</linearGradient>
</defs>
</svg>
